<svg id="Layer_1" data-name="Layer 1" xmlns="http://www.w3.org/2000/svg" viewBox="0 0 437.66 112.73"><defs><style>.cls-1,.cls-16,.cls-17,.cls-2,.cls-20,.cls-3,.cls-4,.cls-5,.cls-6,.cls-7{fill:none;stroke-miterlimit:10;}.cls-1{stroke:#00a13b;}.cls-1,.cls-16,.cls-3{stroke-width:2.5px;}.cls-2{stroke:#0056a4;}.cls-17,.cls-2{stroke-width:5px;}.cls-3{stroke:#00983f;}.cls-4{stroke:#ffec23;}.cls-4,.cls-5,.cls-6,.cls-7{stroke-width:0.25px;}.cls-4,.cls-5{stroke-dasharray:8 3;}.cls-5{stroke:#ffe800;}.cls-6{stroke:#1d1d1b;}.cls-6,.cls-7{stroke-dasharray:1 0.5;}.cls-7{stroke:#e52823;}.cls-8{fill:#008639;}.cls-9{fill:#009d3d;}.cls-10{fill:#274698;}.cls-11{fill:#0f4899;}.cls-12{fill:#2a4d9c;}.cls-13{fill:#2a4e9d;}.cls-14{fill:#164f9e;}.cls-15{fill:#e00914;}.cls-16{stroke:#00a23a;}.cls-17{stroke:#00539a;}.cls-18{fill:#00903a;}.cls-19{fill:#2d54a1;}.cls-20{stroke:#e41713;}</style></defs><line class="cls-1" x1="36.63" y1="19.39" x2="47.73" y2="19.39"/><line class="cls-1" x1="56.22" y1="38.94" x2="46.61" y2="18.69"/><line class="cls-1" x1="55.08" y1="38.26" x2="94.95" y2="38.26"/><line class="cls-1" x1="93.83" y1="38.96" x2="103.83" y2="18.7"/><line class="cls-1" x1="102.68" y1="19.39" x2="128.17" y2="19.39"/><line class="cls-1" x1="127.04" y1="18.69" x2="137.05" y2="40.24"/><line class="cls-2" x1="135.89" y1="38.26" x2="175.6" y2="38.26"/><line class="cls-2" x1="173.45" y1="39.51" x2="185.11" y2="19"/><line class="cls-2" x1="182.67" y1="19.39" x2="209.42" y2="19.39"/><line class="cls-2" x1="207.19" y1="18.04" x2="218.3" y2="39.55"/><line class="cls-2" x1="216.1" y1="38.26" x2="237.61" y2="38.26"/><line class="cls-2" x1="235.37" y1="39.65" x2="246.04" y2="18.03"/><line class="cls-2" x1="243.8" y1="19.39" x2="274.02" y2="19.39"/><line class="cls-2" x1="271.83" y1="18.1" x2="283.62" y2="39.56"/><line class="cls-2" x1="281.42" y1="38.26" x2="304.06" y2="38.26"/><line class="cls-2" x1="301.79" y1="39.68" x2="312.05" y2="18.08"/><line class="cls-2" x1="309.85" y1="19.39" x2="377.68" y2="19.39"/><line class="cls-2" x1="375.52" y1="18.11" x2="387.52" y2="39.53"/><line class="cls-3" x1="415.17" y1="19.44" x2="405.22" y2="40.22"/><line class="cls-2" x1="385.34" y1="38.26" x2="406.35" y2="38.26"/><line class="cls-3" x1="431.12" y1="20.06" x2="414.1" y2="20.06"/><line class="cls-4" x1="51.76" y1="0.01" x2="51.81" y2="56.98"/><line class="cls-4" x1="98.96" x2="98.96" y2="57"/><line class="cls-4" x1="131.8" x2="131.8" y2="57"/><line class="cls-4" x1="179.04" x2="179.04" y2="57"/><line class="cls-4" x1="216.74" x2="216.74" y2="57"/><line class="cls-4" x1="283.04" x2="283.04" y2="57"/><line class="cls-5" x1="386.36" x2="386.36" y2="57"/><line class="cls-6" x1="18.76" y1="38.26" x2="395.5" y2="38.26"/><line class="cls-7" x1="19.44" y1="19.39" x2="395.55" y2="19.39"/><path class="cls-8" d="M133,337.65c0-.37,0-.82,0-1.16h0c-.09.32-.2.65-.34,1l-.47,1.3h-.27l-.43-1.28a9.83,9.83,0,0,1-.31-1.05h0c0,.34,0,.79-.05,1.19l-.08,1.16h-.33l.19-2.7h.44l.46,1.31a9,9,0,0,1,.28.9h0c.07-.27.16-.56.28-.9l.48-1.31h.45l.16,2.7h-.34Z" transform="translate(-69.43 -324.98)"/><path class="cls-8" d="M135.86,338.75a1.74,1.74,0,0,1-.71.13,1.26,1.26,0,0,1-1.33-1.36,1.34,1.34,0,0,1,1.41-1.42,1.43,1.43,0,0,1,.64.12l-.09.28a1.32,1.32,0,0,0-.54-.11,1,1,0,0,0-1.05,1.11,1,1,0,0,0,1,1.09,1.34,1.34,0,0,0,.57-.12Z" transform="translate(-69.43 -324.98)"/><path class="cls-8" d="M136.65,336.14v1.6c0,.6.27.86.63.86s.65-.27.65-.86v-1.6h.35v1.57c0,.83-.43,1.17-1,1.17s-1-.31-1-1.15v-1.59Z" transform="translate(-69.43 -324.98)"/><path class="cls-8" d="M139.69,338.41a1.16,1.16,0,0,0,.62.18c.36,0,.57-.19.57-.46s-.15-.4-.51-.53-.71-.39-.71-.77a.77.77,0,0,1,.87-.73,1.2,1.2,0,0,1,.59.13l-.09.29a1.06,1.06,0,0,0-.51-.13c-.37,0-.51.22-.51.4s.16.38.53.52.69.4.69.79-.31.78-.94.78a1.46,1.46,0,0,1-.69-.17Z" transform="translate(-69.43 -324.98)"/><path class="cls-8" d="M142.11,336.35v.55h.5v.27h-.5v1c0,.24.07.38.26.38l.21,0v.26a.8.8,0,0,1-.31.05.48.48,0,0,1-.38-.15.71.71,0,0,1-.14-.5v-1.06h-.3v-.27h.3v-.46Z" transform="translate(-69.43 -324.98)"/><path class="cls-8" d="M144.08,338.84l0-.25h0a.71.71,0,0,1-.59.29.55.55,0,0,1-.59-.55c0-.47.41-.73,1.16-.72v0a.4.4,0,0,0-.44-.45,1,1,0,0,0-.5.14L143,337a1.23,1.23,0,0,1,.63-.17c.59,0,.74.4.74.79v.72a3.28,3.28,0,0,0,0,.47Zm-.05-1c-.39,0-.82.06-.82.44a.31.31,0,0,0,.33.33.49.49,0,0,0,.47-.32.52.52,0,0,0,0-.11Z" transform="translate(-69.43 -324.98)"/><path class="cls-8" d="M144.94,337.51c0-.23,0-.43,0-.61h.31v.38h0a.57.57,0,0,1,.53-.42h.1v.33h-.12a.49.49,0,0,0-.47.45.88.88,0,0,0,0,.17v1h-.34Z" transform="translate(-69.43 -324.98)"/><path class="cls-8" d="M146.76,336.35v.55h.51v.27h-.51v1c0,.24.07.38.27.38l.2,0,0,.26a.83.83,0,0,1-.31.05.46.46,0,0,1-.38-.15.71.71,0,0,1-.14-.5v-1.06h-.3v-.27h.3v-.46Z" transform="translate(-69.43 -324.98)"/><path class="cls-8" d="M148.48,338.41a1.16,1.16,0,0,0,.62.18c.36,0,.56-.19.56-.46s-.14-.4-.5-.53-.72-.39-.72-.77a.78.78,0,0,1,.88-.73,1.2,1.2,0,0,1,.59.13l-.09.29a1.07,1.07,0,0,0-.52-.13c-.36,0-.5.22-.5.4s.16.38.53.52.69.4.69.79-.31.78-.94.78a1.46,1.46,0,0,1-.69-.17Z" transform="translate(-69.43 -324.98)"/><path class="cls-8" d="M150.88,336.36a.22.22,0,0,1-.23.22.22.22,0,1,1,.23-.22Zm-.4,2.48V336.9h.36v1.94Z" transform="translate(-69.43 -324.98)"/><path class="cls-8" d="M153.09,336.9c0,.14,0,.3,0,.53v1.13a1.14,1.14,0,0,1-.27.88,1,1,0,0,1-.71.23,1.17,1.17,0,0,1-.64-.16l.09-.26a1,1,0,0,0,.56.15c.36,0,.63-.19.63-.68v-.21h0a.7.7,0,0,1-.62.32.86.86,0,0,1-.82-.94.93.93,0,0,1,.87-1,.66.66,0,0,1,.61.34h0l0-.3Zm-.37.77a.41.41,0,0,0,0-.16.49.49,0,0,0-.49-.37c-.33,0-.57.28-.57.73s.19.69.57.69a.52.52,0,0,0,.49-.36.62.62,0,0,0,0-.19Z" transform="translate(-69.43 -324.98)"/><path class="cls-8" d="M153.63,337.43c0-.2,0-.37,0-.53h.31l0,.32h0a.71.71,0,0,1,.64-.36c.26,0,.68.16.68.82v1.16h-.35v-1.12c0-.31-.12-.57-.45-.57a.51.51,0,0,0-.47.36.45.45,0,0,0,0,.16v1.17h-.35Z" transform="translate(-69.43 -324.98)"/><path class="cls-8" d="M156.92,338.84l0-.25h0a.68.68,0,0,1-.59.29.55.55,0,0,1-.59-.55c0-.47.42-.73,1.16-.72v0a.4.4,0,0,0-.44-.45,1,1,0,0,0-.5.14l-.08-.23a1.24,1.24,0,0,1,.64-.17c.59,0,.73.4.73.79v.72a3.28,3.28,0,0,0,0,.47Zm0-1c-.38,0-.82.06-.82.44a.31.31,0,0,0,.33.33.47.47,0,0,0,.47-.32.52.52,0,0,0,0-.11Z" transform="translate(-69.43 -324.98)"/><path class="cls-8" d="M157.78,336h.35v2.84h-.35Z" transform="translate(-69.43 -324.98)"/><path class="cls-9" d="M175.59,367.6a3.75,3.75,0,0,1,.67-.06,1.1,1.1,0,0,1,.76.23.74.74,0,0,1,.23.56.78.78,0,0,1-.21.58,1.12,1.12,0,0,1-.82.29,1.23,1.23,0,0,1-.28,0v1.08h-.35Zm.35,1.3a1.23,1.23,0,0,0,.29,0c.42,0,.67-.2.67-.57s-.25-.53-.63-.53a1.26,1.26,0,0,0-.33,0Z" transform="translate(-69.43 -324.98)"/><path class="cls-9" d="M179.27,369.73c0,.2,0,.38,0,.53H179l0-.32h0a.71.71,0,0,1-.64.36c-.3,0-.66-.16-.66-.84v-1.14H178v1.08c0,.36.11.61.43.61a.49.49,0,0,0,.46-.32.48.48,0,0,0,0-.18v-1.19h.35Z" transform="translate(-69.43 -324.98)"/><path class="cls-9" d="M179.85,367.42h.35v2.84h-.35Z" transform="translate(-69.43 -324.98)"/><path class="cls-9" d="M180.8,367.42h.35v2.84h-.35Z" transform="translate(-69.43 -324.98)"/><path class="cls-9" d="M183,367.56v1.6c0,.6.27.86.63.86s.65-.26.65-.86v-1.6h.35v1.58c0,.82-.43,1.16-1,1.16s-1-.31-1-1.15v-1.59Z" transform="translate(-69.43 -324.98)"/><path class="cls-9" d="M185.18,369c0-.25,0-.45,0-.64h.32v.34h0a.75.75,0,0,1,.69-.38.88.88,0,0,1,.82,1,.92.92,0,0,1-.88,1,.69.69,0,0,1-.6-.3h0v1.05h-.34Zm.34.51a.77.77,0,0,0,0,.15.55.55,0,0,0,.53.41c.37,0,.59-.31.59-.75s-.21-.72-.58-.72a.56.56,0,0,0-.53.44.58.58,0,0,0,0,.14Z" transform="translate(-69.43 -324.98)"/><path class="cls-9" d="M189.37,370.26l0-.24h0a.71.71,0,0,1-.59.28.55.55,0,0,1-.59-.55c0-.47.41-.73,1.16-.72v0a.4.4,0,0,0-.44-.45,1,1,0,0,0-.5.14l-.08-.23a1.23,1.23,0,0,1,.63-.17c.6,0,.74.4.74.79v.73a3.23,3.23,0,0,0,0,.46Zm-.05-1c-.38,0-.82.06-.82.44a.3.3,0,0,0,.33.33.49.49,0,0,0,.47-.32.52.52,0,0,0,0-.11Z" transform="translate(-69.43 -324.98)"/><path class="cls-9" d="M190.23,368.85c0-.2,0-.37,0-.53h.31l0,.32h0a.72.72,0,0,1,.64-.36c.27,0,.69.16.69.82v1.16h-.36v-1.12c0-.31-.11-.57-.44-.57a.51.51,0,0,0-.48.36.88.88,0,0,0,0,.17v1.16h-.35Z" transform="translate(-69.43 -324.98)"/><path class="cls-9" d="M194.12,367.42v2.34a3.86,3.86,0,0,0,0,.5h-.32l0-.34h0a.72.72,0,0,1-.66.38.88.88,0,0,1-.83-1,.92.92,0,0,1,.87-1,.64.64,0,0,1,.58.3h0v-1.16Zm-.35,1.69a.89.89,0,0,0,0-.15.51.51,0,0,0-.51-.4c-.36,0-.58.32-.58.74s.2.72.58.72a.53.53,0,0,0,.51-.42.77.77,0,0,0,0-.15Z" transform="translate(-69.43 -324.98)"/><path class="cls-9" d="M172.64,375.06l-.68-2.7h.36l.32,1.37c.08.33.15.67.2.93h0c0-.27.13-.59.22-.94l.36-1.36h.36l.33,1.37a9,9,0,0,1,.19.93h0c.05-.3.13-.6.21-.94l.36-1.36h.36l-.77,2.7h-.36l-.34-1.4a8.12,8.12,0,0,1-.18-.88h0a7,7,0,0,1-.2.88l-.39,1.4Z" transform="translate(-69.43 -324.98)"/><path class="cls-9" d="M176.51,375.06l0-.24h0a.73.73,0,0,1-.59.28.55.55,0,0,1-.59-.55c0-.47.41-.73,1.16-.72v0a.4.4,0,0,0-.44-.45,1,1,0,0,0-.5.14l-.08-.23a1.23,1.23,0,0,1,.63-.17c.59,0,.74.4.74.79v.73a3.23,3.23,0,0,0,0,.46Zm0-1c-.39,0-.82.06-.82.44a.3.3,0,0,0,.33.33.49.49,0,0,0,.47-.32.52.52,0,0,0,0-.11Z" transform="translate(-69.43 -324.98)"/><path class="cls-9" d="M177.76,372.58a.22.22,0,0,1-.44,0,.22.22,0,0,1,.22-.22A.22.22,0,0,1,177.76,372.58Zm-.39,2.48v-1.94h.35v1.94Z" transform="translate(-69.43 -324.98)"/><path class="cls-9" d="M178.73,372.57v.55h.5v.27h-.5v1.05c0,.24.06.37.26.37l.2,0,0,.26a.83.83,0,0,1-.31.05.46.46,0,0,1-.38-.15.7.7,0,0,1-.14-.5v-1.06h-.3v-.27h.3v-.46Z" transform="translate(-69.43 -324.98)"/><path class="cls-9" d="M180.51,375.06v-1.67h-.27v-.27h.27V373a.91.91,0,0,1,.22-.67.69.69,0,0,1,.48-.18.81.81,0,0,1,.3.05l0,.27a.63.63,0,0,0-.23,0c-.3,0-.37.26-.37.56v.1h.47v.27h-.47v1.67Z" transform="translate(-69.43 -324.98)"/><path class="cls-9" d="M183.34,374.08a.94.94,0,0,1-1,1,.91.91,0,0,1-.93-1,.94.94,0,0,1,1-1A.91.91,0,0,1,183.34,374.08Zm-1.53,0c0,.42.24.74.58.74s.59-.32.59-.75-.16-.75-.58-.75S181.81,373.73,181.81,374.1Z" transform="translate(-69.43 -324.98)"/><path class="cls-9" d="M183.79,373.73c0-.23,0-.43,0-.61h.31v.38h0a.57.57,0,0,1,.53-.42h.1v.33h-.12a.49.49,0,0,0-.47.45.88.88,0,0,0,0,.17v1h-.34Z" transform="translate(-69.43 -324.98)"/><path class="cls-9" d="M185.91,374.64a1.26,1.26,0,0,0,.62.17c.36,0,.56-.19.56-.46s-.14-.39-.5-.53-.71-.39-.71-.77a.77.77,0,0,1,.87-.73,1.2,1.2,0,0,1,.59.13l-.09.29a1.07,1.07,0,0,0-.52-.13c-.36,0-.5.22-.5.4s.16.38.53.52.69.4.69.79-.31.78-.94.78a1.46,1.46,0,0,1-.69-.17Z" transform="translate(-69.43 -324.98)"/><path class="cls-9" d="M188.13,374.16a.63.63,0,0,0,.67.67,1.34,1.34,0,0,0,.53-.1l.06.25a1.46,1.46,0,0,1-.64.12.9.9,0,0,1-.95-1,.94.94,0,0,1,.91-1,.82.82,0,0,1,.8.91.72.72,0,0,1,0,.17Zm1-.26a.51.51,0,0,0-.49-.57.58.58,0,0,0-.54.57Z" transform="translate(-69.43 -324.98)"/><path class="cls-9" d="M189.94,373.65c0-.2,0-.37,0-.53h.31l0,.32h0a.71.71,0,0,1,.64-.36c.26,0,.68.16.68.82v1.16h-.35v-1.12c0-.31-.12-.57-.45-.57a.51.51,0,0,0-.47.36.47.47,0,0,0,0,.17v1.16h-.35Z" transform="translate(-69.43 -324.98)"/><path class="cls-9" d="M192.11,374.7a.93.93,0,0,0,.47.14c.25,0,.37-.13.37-.29s-.1-.26-.36-.35-.51-.32-.51-.55a.6.6,0,0,1,.67-.57,1,1,0,0,1,.48.12l-.09.26a.76.76,0,0,0-.4-.12c-.21,0-.32.12-.32.27s.11.23.37.33.5.29.5.58-.26.58-.72.58A1.08,1.08,0,0,1,192,375Z" transform="translate(-69.43 -324.98)"/><path class="cls-9" d="M195.5,374.08a1,1,0,0,1-1,1,.91.91,0,0,1-.92-1,.94.94,0,0,1,1-1A.92.92,0,0,1,195.5,374.08Zm-1.54,0a.66.66,0,0,0,.59.74c.34,0,.59-.32.59-.75s-.17-.75-.58-.75S194,373.73,194,374.1Z" transform="translate(-69.43 -324.98)"/><path class="cls-9" d="M195.94,373.73c0-.23,0-.43,0-.61h.3l0,.38h0a.58.58,0,0,1,.54-.42h.1v.33h-.12a.49.49,0,0,0-.47.45.88.88,0,0,0,0,.17v1h-.35Z" transform="translate(-69.43 -324.98)"/><path class="cls-9" d="M177.58,378.53c0-.23,0-.43,0-.61h.31v.38h0a.56.56,0,0,1,.53-.42h.1v.33h-.12a.49.49,0,0,0-.47.45.88.88,0,0,0,0,.17v1h-.34Z" transform="translate(-69.43 -324.98)"/><path class="cls-9" d="M179,379a.62.62,0,0,0,.66.67,1.4,1.4,0,0,0,.54-.1l.06.25a1.55,1.55,0,0,1-.65.12.9.9,0,0,1-1-1,.94.94,0,0,1,.91-1,.82.82,0,0,1,.8.91c0,.07,0,.13,0,.17Zm1-.26a.5.5,0,0,0-.49-.57.59.59,0,0,0-.54.57Z" transform="translate(-69.43 -324.98)"/><path class="cls-9" d="M180.8,379.5a.89.89,0,0,0,.46.14c.26,0,.38-.13.38-.29s-.1-.26-.36-.35-.51-.32-.51-.55a.6.6,0,0,1,.66-.57,1,1,0,0,1,.48.12l-.09.26a.69.69,0,0,0-.39-.12c-.21,0-.33.12-.33.27s.12.23.37.33.51.29.51.58-.27.58-.73.58a1.11,1.11,0,0,1-.54-.13Z" transform="translate(-69.43 -324.98)"/><path class="cls-9" d="M182.43,378.56c0-.25,0-.45,0-.64h.31l0,.34h0a.77.77,0,0,1,.69-.38.88.88,0,0,1,.82,1c0,.7-.42,1-.88,1a.67.67,0,0,1-.59-.3h0v1h-.35Zm.35.51c0,.05,0,.1,0,.15a.56.56,0,0,0,.53.41c.37,0,.59-.31.59-.75s-.2-.72-.58-.72a.56.56,0,0,0-.53.44.59.59,0,0,0,0,.14Z" transform="translate(-69.43 -324.98)"/><path class="cls-9" d="M186.46,378.88a1,1,0,0,1-1,1,.91.91,0,0,1-.92-1,.94.94,0,0,1,1-1A.92.92,0,0,1,186.46,378.88Zm-1.54,0a.66.66,0,0,0,.59.74c.34,0,.59-.32.59-.75s-.17-.75-.58-.75S184.92,378.53,184.92,378.9Z" transform="translate(-69.43 -324.98)"/><path class="cls-9" d="M186.9,378.45c0-.2,0-.37,0-.53h.31l0,.32h0a.71.71,0,0,1,.64-.36c.26,0,.68.16.68.82v1.16h-.35v-1.12c0-.31-.12-.57-.45-.57a.51.51,0,0,0-.47.36.47.47,0,0,0,0,.17v1.16h-.35Z" transform="translate(-69.43 -324.98)"/><path class="cls-9" d="M189.07,379.5a.93.93,0,0,0,.47.14c.25,0,.37-.13.37-.29s-.1-.26-.36-.35-.51-.32-.51-.55a.6.6,0,0,1,.67-.57,1,1,0,0,1,.48.12l-.09.26a.76.76,0,0,0-.4-.12c-.21,0-.32.12-.32.27s.11.23.37.33.5.29.5.58-.26.58-.72.58a1.08,1.08,0,0,1-.54-.13Z" transform="translate(-69.43 -324.98)"/><path class="cls-9" d="M190.9,379a.62.62,0,0,0,.67.67,1.34,1.34,0,0,0,.53-.1l.06.25a1.46,1.46,0,0,1-.64.12.9.9,0,0,1-1-1,.93.93,0,0,1,.9-1,1,1,0,0,1,.79,1.08Zm1-.26a.5.5,0,0,0-.48-.57.57.57,0,0,0-.54.57Z" transform="translate(-69.43 -324.98)"/><path class="cls-10" d="M216.4,333.34a5.13,5.13,0,0,1,.73-.06,1.57,1.57,0,0,1,1.1.34,1.24,1.24,0,0,1,.38,1,1.4,1.4,0,0,1-.39,1A1.62,1.62,0,0,1,217,336a5.53,5.53,0,0,1-.63,0Zm.34,2.38a1.83,1.83,0,0,0,.35,0,1,1,0,0,0,1.15-1.14,1,1,0,0,0-1.09-1,1.93,1.93,0,0,0-.41,0Z" transform="translate(-69.43 -324.98)"/><path class="cls-10" d="M219.41,333.3v1.13h1.3V333.3h.35V336h-.35v-1.26h-1.3V336h-.35v-2.7Z" transform="translate(-69.43 -324.98)"/><path class="cls-10" d="M222.18,333.6h-.82v-.3h2v.3h-.82V336h-.35Z" transform="translate(-69.43 -324.98)"/><path class="cls-10" d="M224.46,335.57a1.16,1.16,0,0,0,.62.18c.35,0,.56-.19.56-.46s-.14-.4-.51-.53-.71-.39-.71-.77a.78.78,0,0,1,.87-.73,1.21,1.21,0,0,1,.6.13l-.1.29a1,1,0,0,0-.51-.13c-.36,0-.51.22-.51.4s.17.38.54.52.69.4.69.79-.31.78-.95.78a1.41,1.41,0,0,1-.68-.17Z" transform="translate(-69.43 -324.98)"/><path class="cls-10" d="M226.68,335.1a.62.62,0,0,0,.67.67,1.34,1.34,0,0,0,.53-.1l.06.25a1.63,1.63,0,0,1-.64.12.9.9,0,0,1-1-1,.93.93,0,0,1,.9-1,1,1,0,0,1,.79,1.08Zm1-.26a.5.5,0,0,0-.48-.57.57.57,0,0,0-.54.57Z" transform="translate(-69.43 -324.98)"/><path class="cls-10" d="M228.49,334.59c0-.2,0-.37,0-.53h.31l0,.32h0a.72.72,0,0,1,.64-.36c.27,0,.69.16.69.82V336h-.35v-1.12c0-.31-.12-.57-.45-.57a.51.51,0,0,0-.47.36.45.45,0,0,0,0,.16V336h-.35Z" transform="translate(-69.43 -324.98)"/><path class="cls-10" d="M232.38,333.16v2.34c0,.17,0,.37,0,.5h-.32v-.34h0a.72.72,0,0,1-.66.38.88.88,0,0,1-.83-1,.93.93,0,0,1,.87-1,.64.64,0,0,1,.58.3h0v-1.16Zm-.35,1.69a.41.41,0,0,0,0-.15.51.51,0,0,0-.5-.4c-.37,0-.58.32-.58.74s.19.72.57.72a.53.53,0,0,0,.51-.42.39.39,0,0,0,0-.15Z" transform="translate(-69.43 -324.98)"/><path class="cls-10" d="M232.92,335.64a.89.89,0,0,0,.46.14c.26,0,.38-.13.38-.29s-.1-.26-.36-.36-.51-.31-.51-.54a.6.6,0,0,1,.66-.57,1,1,0,0,1,.48.12l-.09.26a.69.69,0,0,0-.39-.12c-.21,0-.33.12-.33.27s.12.23.37.32.51.3.51.59-.27.58-.72.58a1.12,1.12,0,0,1-.55-.13Z" transform="translate(-69.43 -324.98)"/><path class="cls-10" d="M213.36,338.14a3.26,3.26,0,0,1,.67-.06,1.07,1.07,0,0,1,.77.22.68.68,0,0,1,.22.52.7.7,0,0,1-.51.68v0a.65.65,0,0,1,.39.54,5.68,5.68,0,0,0,.21.74h-.36a4.51,4.51,0,0,1-.18-.65c-.08-.37-.22-.51-.54-.52h-.32v1.17h-.35Zm.35,1.23h.35c.37,0,.61-.21.61-.51s-.25-.5-.62-.51a1.77,1.77,0,0,0-.34,0Z" transform="translate(-69.43 -324.98)"/><path class="cls-10" d="M215.71,339.89a.62.62,0,0,0,.66.68,1.4,1.4,0,0,0,.54-.1l.06.25a1.71,1.71,0,0,1-.64.12.9.9,0,0,1-1-1,.94.94,0,0,1,.91-1,.82.82,0,0,1,.8.91c0,.07,0,.13,0,.16Zm1-.25a.5.5,0,0,0-.49-.57.59.59,0,0,0-.54.57Z" transform="translate(-69.43 -324.98)"/><path class="cls-10" d="M217.47,340.44a.89.89,0,0,0,.46.14c.26,0,.38-.13.38-.29s-.1-.26-.36-.36-.51-.31-.51-.54a.6.6,0,0,1,.66-.57,1,1,0,0,1,.48.12l-.09.26a.69.69,0,0,0-.39-.12c-.21,0-.33.12-.33.27s.12.23.37.32.51.3.51.59-.27.58-.72.58a1.12,1.12,0,0,1-.55-.13Z" transform="translate(-69.43 -324.98)"/><path class="cls-10" d="M219.1,339.49c0-.24,0-.44,0-.63h.31l0,.34h0a.75.75,0,0,1,.68-.38.88.88,0,0,1,.82,1c0,.7-.42,1-.88,1a.67.67,0,0,1-.59-.3h0v1h-.35Zm.35.52a.59.59,0,0,0,0,.14.53.53,0,0,0,.52.42c.37,0,.59-.31.59-.75s-.2-.72-.58-.72a.57.57,0,0,0-.53.44.59.59,0,0,0,0,.14Z" transform="translate(-69.43 -324.98)"/><path class="cls-10" d="M223.13,339.81a1,1,0,0,1-1,1,.91.91,0,0,1-.93-1,.94.94,0,0,1,1-1A.91.91,0,0,1,223.13,339.81Zm-1.54,0c0,.43.25.75.59.75s.59-.32.59-.75-.17-.75-.58-.75S221.59,339.47,221.59,339.83Z" transform="translate(-69.43 -324.98)"/><path class="cls-10" d="M223.57,339.39c0-.2,0-.37,0-.53h.31l0,.32h0a.71.71,0,0,1,.64-.36c.26,0,.68.16.68.82v1.16h-.35v-1.12c0-.31-.12-.57-.45-.57a.51.51,0,0,0-.47.36.45.45,0,0,0,0,.16v1.17h-.35Z" transform="translate(-69.43 -324.98)"/><path class="cls-10" d="M225.75,340.44a.86.86,0,0,0,.46.14c.25,0,.37-.13.37-.29s-.1-.26-.35-.36-.52-.31-.52-.54a.6.6,0,0,1,.67-.57,1,1,0,0,1,.48.12l-.09.26a.76.76,0,0,0-.4-.12.28.28,0,0,0-.32.27c0,.16.12.23.37.32s.5.3.5.59-.26.58-.72.58a1.08,1.08,0,0,1-.54-.13Z" transform="translate(-69.43 -324.98)"/><path class="cls-10" d="M228.19,340.37a1.16,1.16,0,0,0,.62.18c.36,0,.57-.19.57-.46s-.15-.4-.51-.53-.71-.39-.71-.77a.77.77,0,0,1,.87-.73,1.2,1.2,0,0,1,.59.13l-.09.29a1.06,1.06,0,0,0-.51-.13c-.37,0-.51.22-.51.4s.16.38.53.52.69.4.69.79-.31.78-.94.78a1.49,1.49,0,0,1-.69-.17Z" transform="translate(-69.43 -324.98)"/><path class="cls-10" d="M230.59,338.32a.22.22,0,0,1-.44,0,.22.22,0,0,1,.22-.22A.22.22,0,0,1,230.59,338.32Zm-.39,2.48v-1.94h.35v1.94Z" transform="translate(-69.43 -324.98)"/><path class="cls-10" d="M232.8,338.86c0,.14,0,.3,0,.53v1.13a1.1,1.1,0,0,1-.27.88,1,1,0,0,1-.71.23,1.19,1.19,0,0,1-.64-.16l.09-.26a1.11,1.11,0,0,0,.57.15c.36,0,.62-.19.62-.68v-.21h0a.68.68,0,0,1-.61.32.87.87,0,0,1-.83-.94.93.93,0,0,1,.87-1,.64.64,0,0,1,.61.34h0v-.3Zm-.36.77a.78.78,0,0,0,0-.16.51.51,0,0,0-.5-.37c-.33,0-.57.28-.57.73s.19.69.57.69a.51.51,0,0,0,.49-.36.63.63,0,0,0,0-.19Z" transform="translate(-69.43 -324.98)"/><path class="cls-10" d="M233.35,339.39c0-.2,0-.37,0-.53h.31l0,.32h0a.71.71,0,0,1,.64-.36c.27,0,.68.16.68.82v1.16h-.35v-1.12c0-.31-.12-.57-.45-.57a.51.51,0,0,0-.47.36.88.88,0,0,0,0,.16v1.17h-.35Z" transform="translate(-69.43 -324.98)"/><path class="cls-10" d="M236.64,340.8l0-.25h0a.71.71,0,0,1-.6.29.55.55,0,0,1-.59-.55c0-.47.42-.73,1.17-.72v0a.4.4,0,0,0-.44-.45,1.08,1.08,0,0,0-.51.14l-.08-.23a1.24,1.24,0,0,1,.64-.17c.59,0,.73.4.73.79v.72a2.23,2.23,0,0,0,0,.47Zm-.06-1c-.38,0-.82.06-.82.44a.32.32,0,0,0,.34.33.47.47,0,0,0,.46-.32.23.23,0,0,0,0-.11Z" transform="translate(-69.43 -324.98)"/><path class="cls-10" d="M237.49,338h.35v2.84h-.35Z" transform="translate(-69.43 -324.98)"/><path class="cls-11" d="M255.79,365.66a3.9,3.9,0,0,1,.67-.05,1.13,1.13,0,0,1,.76.22.73.73,0,0,1,.23.57.81.81,0,0,1-.2.57,1.13,1.13,0,0,1-.83.3,1.2,1.2,0,0,1-.28,0v1.08h-.35Zm.35,1.3a1.17,1.17,0,0,0,.29,0c.42,0,.68-.21.68-.58s-.26-.53-.64-.53a1.94,1.94,0,0,0-.33,0Z" transform="translate(-69.43 -324.98)"/><path class="cls-11" d="M259.47,367.8c0,.2,0,.37,0,.52h-.31l0-.31h0a.76.76,0,0,1-.64.36c-.31,0-.67-.17-.67-.85v-1.13h.35v1.07c0,.37.11.62.43.62a.53.53,0,0,0,.47-.32.57.57,0,0,0,0-.18v-1.19h.35Z" transform="translate(-69.43 -324.98)"/><path class="cls-11" d="M260.05,365.48h.36v2.84h-.36Z" transform="translate(-69.43 -324.98)"/><path class="cls-11" d="M261,365.48h.35v2.84H261Z" transform="translate(-69.43 -324.98)"/><path class="cls-11" d="M263.15,365.63v1.59c0,.61.27.86.63.86s.65-.26.65-.86v-1.59h.35v1.57c0,.83-.43,1.17-1,1.17s-1-.32-1-1.15v-1.59Z" transform="translate(-69.43 -324.98)"/><path class="cls-11" d="M265.38,367c0-.25,0-.45,0-.63h.32v.33h0a.76.76,0,0,1,.69-.38.88.88,0,0,1,.82,1,.92.92,0,0,1-.88,1,.67.67,0,0,1-.6-.31h0v1.05h-.35Zm.35.52a.61.61,0,0,0,0,.14.56.56,0,0,0,.53.41c.37,0,.59-.3.59-.75s-.21-.72-.58-.72a.57.57,0,0,0-.53.44.68.68,0,0,0,0,.14Z" transform="translate(-69.43 -324.98)"/><path class="cls-11" d="M269.57,368.32l0-.24h0a.71.71,0,0,1-.59.29.55.55,0,0,1-.59-.56c0-.47.42-.72,1.16-.72v0a.4.4,0,0,0-.44-.45,1,1,0,0,0-.5.15l-.08-.23a1.15,1.15,0,0,1,.64-.18c.59,0,.73.41.73.8v.72a3.13,3.13,0,0,0,0,.46Zm-.05-1c-.38,0-.82.06-.82.43a.31.31,0,0,0,.33.34.47.47,0,0,0,.47-.33.36.36,0,0,0,0-.11Z" transform="translate(-69.43 -324.98)"/><path class="cls-11" d="M270.43,366.91a4.18,4.18,0,0,0,0-.52h.32l0,.32h0a.71.71,0,0,1,.64-.37c.27,0,.69.16.69.83v1.15h-.35v-1.11c0-.31-.12-.57-.45-.57a.49.49,0,0,0-.47.36.38.38,0,0,0,0,.16v1.16h-.35Z" transform="translate(-69.43 -324.98)"/><path class="cls-11" d="M274.32,365.48v2.34a3.78,3.78,0,0,0,0,.5H274l0-.33h0a.74.74,0,0,1-.66.38.89.89,0,0,1-.83-1,.93.93,0,0,1,.87-1,.64.64,0,0,1,.58.3h0v-1.16Zm-.35,1.7a.68.68,0,0,0,0-.15.51.51,0,0,0-.5-.41c-.37,0-.58.32-.58.75s.19.71.57.71a.52.52,0,0,0,.51-.42.61.61,0,0,0,0-.15Z" transform="translate(-69.43 -324.98)"/><path class="cls-11" d="M253.47,371.19c0,.14,0,.29,0,.53v1.12a1.15,1.15,0,0,1-.27.89,1.06,1.06,0,0,1-.71.23,1.26,1.26,0,0,1-.64-.16l.09-.27a1,1,0,0,0,.56.15.59.59,0,0,0,.63-.67v-.22h0a.7.7,0,0,1-.62.33.87.87,0,0,1-.82-.95.94.94,0,0,1,.87-1,.66.66,0,0,1,.61.34h0l0-.29Zm-.37.76a.41.41,0,0,0,0-.16.5.5,0,0,0-.49-.37c-.33,0-.57.28-.57.73s.19.7.57.7a.53.53,0,0,0,.49-.36.62.62,0,0,0,0-.19Z" transform="translate(-69.43 -324.98)"/><path class="cls-11" d="M254.23,372.22a.62.62,0,0,0,.67.67,1.18,1.18,0,0,0,.53-.1l.06.25a1.46,1.46,0,0,1-.64.12.89.89,0,0,1-.95-1,.94.94,0,0,1,.9-1.05.82.82,0,0,1,.8.92.71.71,0,0,1,0,.16Zm1-.25a.49.49,0,0,0-.48-.57.57.57,0,0,0-.54.57Z" transform="translate(-69.43 -324.98)"/><path class="cls-11" d="M256.46,370.63v.56H257v.27h-.51v1c0,.24.07.37.27.37l.2,0,0,.27a1.17,1.17,0,0,1-.31,0,.49.49,0,0,1-.38-.14.74.74,0,0,1-.14-.51v-1.05h-.3v-.27h.3v-.47Z" transform="translate(-69.43 -324.98)"/><path class="cls-11" d="M257.79,370.63v.56h.5v.27h-.5v1c0,.24.07.37.26.37l.21,0v.27a1.11,1.11,0,0,1-.31,0,.51.51,0,0,1-.38-.14.74.74,0,0,1-.14-.51v-1.05h-.3v-.27h.3v-.47Z" transform="translate(-69.43 -324.98)"/><path class="cls-11" d="M259.08,370.64a.21.21,0,0,1-.22.22.22.22,0,0,1-.22-.22.22.22,0,0,1,.22-.22A.21.21,0,0,1,259.08,370.64Zm-.39,2.48v-1.93H259v1.93Z" transform="translate(-69.43 -324.98)"/><path class="cls-11" d="M259.62,371.71c0-.2,0-.36,0-.52h.31l0,.32h0a.7.7,0,0,1,.64-.37c.26,0,.68.16.68.83v1.15h-.35V372c0-.31-.12-.57-.45-.57a.49.49,0,0,0-.47.36.39.39,0,0,0,0,.16v1.16h-.36Z" transform="translate(-69.43 -324.98)"/><path class="cls-11" d="M263.51,371.19c0,.14,0,.29,0,.53v1.12a1.12,1.12,0,0,1-.28.89,1.05,1.05,0,0,1-.7.23,1.3,1.3,0,0,1-.65-.16l.09-.27a1.11,1.11,0,0,0,.57.15c.36,0,.62-.19.62-.67v-.22h0a.67.67,0,0,1-.61.33.87.87,0,0,1-.83-.95.94.94,0,0,1,.88-1,.64.64,0,0,1,.6.34h0v-.29Zm-.36.76a.78.78,0,0,0,0-.16.52.52,0,0,0-.49-.37c-.34,0-.58.28-.58.73s.19.7.57.7a.52.52,0,0,0,.49-.36.63.63,0,0,0,0-.19Z" transform="translate(-69.43 -324.98)"/><path class="cls-11" d="M264.93,371.79c0-.23,0-.42,0-.6h.31v.38h0a.59.59,0,0,1,.53-.43l.1,0v.33h-.12a.49.49,0,0,0-.47.45.81.81,0,0,0,0,.16v1h-.35Z" transform="translate(-69.43 -324.98)"/><path class="cls-11" d="M266.39,372.22a.62.62,0,0,0,.67.67,1.18,1.18,0,0,0,.53-.1l.06.25a1.5,1.5,0,0,1-.64.12.89.89,0,0,1-.95-1,.94.94,0,0,1,.9-1.05.83.83,0,0,1,.8.92c0,.07,0,.12,0,.16Zm1-.25a.49.49,0,0,0-.48-.57.57.57,0,0,0-.54.57Z" transform="translate(-69.43 -324.98)"/><path class="cls-11" d="M269.27,373.12l0-.24h0a.72.72,0,0,1-.59.29.55.55,0,0,1-.59-.56c0-.47.41-.72,1.16-.72v0a.4.4,0,0,0-.44-.45.92.92,0,0,0-.5.15l-.08-.23a1.14,1.14,0,0,1,.63-.18c.6,0,.74.41.74.8v.72a3.13,3.13,0,0,0,0,.46Zm0-1c-.38,0-.82.06-.82.43a.31.31,0,0,0,.33.34.49.49,0,0,0,.47-.33.36.36,0,0,0,0-.11Z" transform="translate(-69.43 -324.98)"/><path class="cls-11" d="M271.8,370.28v2.34c0,.18,0,.37,0,.5h-.31l0-.33h0a.74.74,0,0,1-.66.38.89.89,0,0,1-.83-1,.92.92,0,0,1,.87-1,.64.64,0,0,1,.58.3h0v-1.16Zm-.35,1.7a.68.68,0,0,0,0-.15.51.51,0,0,0-.51-.41c-.36,0-.58.32-.58.75s.2.71.58.71a.52.52,0,0,0,.51-.42.61.61,0,0,0,0-.15Z" transform="translate(-69.43 -324.98)"/><path class="cls-11" d="M272.51,371.19l.43,1.14c0,.13.09.28.12.4h0c0-.12.07-.27.12-.41l.39-1.13H274l-.53,1.38a3,3,0,0,1-.66,1.21,1.08,1.08,0,0,1-.44.23l-.08-.3a.93.93,0,0,0,.3-.17,1.05,1.05,0,0,0,.3-.39.23.23,0,0,0,0-.09.29.29,0,0,0,0-.09l-.71-1.78Z" transform="translate(-69.43 -324.98)"/><path class="cls-11" d="M275.15,373.12v-1.66h-.27v-.27h.27v-.09a.9.9,0,0,1,.23-.68.65.65,0,0,1,.47-.18.79.79,0,0,1,.3.06l0,.27a.42.42,0,0,0-.22-.05c-.3,0-.38.27-.38.56v.11H276v.27h-.47v1.66Z" transform="translate(-69.43 -324.98)"/><path class="cls-11" d="M278,372.14a1,1,0,0,1-1,1,.93.93,0,0,1-.93-1,1,1,0,0,1,1-1A.92.92,0,0,1,278,372.14Zm-1.53,0c0,.42.24.74.59.74s.58-.31.58-.75-.16-.74-.58-.74S276.45,371.79,276.45,372.16Z" transform="translate(-69.43 -324.98)"/><path class="cls-11" d="M278.43,371.79c0-.23,0-.42,0-.6h.31v.38h0a.59.59,0,0,1,.53-.43l.1,0v.33h-.12a.49.49,0,0,0-.47.45.81.81,0,0,0,0,.16v1h-.35Z" transform="translate(-69.43 -324.98)"/><path class="cls-11" d="M254.51,377.56a.89.89,0,0,0,.46.14c.26,0,.38-.12.38-.28s-.1-.26-.36-.36-.51-.32-.51-.55a.6.6,0,0,1,.66-.57,1,1,0,0,1,.48.12l-.09.26a.7.7,0,0,0-.39-.11c-.21,0-.33.12-.33.26s.12.23.37.33.51.3.51.58-.27.58-.73.58a1.11,1.11,0,0,1-.54-.13Z" transform="translate(-69.43 -324.98)"/><path class="cls-11" d="M256.34,377a.61.61,0,0,0,.66.67,1.27,1.27,0,0,0,.54-.1l.06.25a1.55,1.55,0,0,1-.65.12.9.9,0,0,1-.95-1,.94.94,0,0,1,.91-1.05.83.83,0,0,1,.8.92c0,.07,0,.12,0,.16Zm1-.25c0-.23-.09-.57-.49-.57a.58.58,0,0,0-.54.57Z" transform="translate(-69.43 -324.98)"/><path class="cls-11" d="M258.14,376.51c0-.2,0-.36,0-.52h.31l0,.32h0a.7.7,0,0,1,.64-.37c.27,0,.68.16.68.83v1.15h-.35v-1.11c0-.31-.12-.57-.45-.57a.49.49,0,0,0-.47.36.39.39,0,0,0,0,.16v1.16h-.36Z" transform="translate(-69.43 -324.98)"/><path class="cls-11" d="M260.32,377.56a.86.86,0,0,0,.46.14c.26,0,.38-.12.38-.28s-.1-.26-.36-.36-.52-.32-.52-.55a.6.6,0,0,1,.67-.57,1,1,0,0,1,.48.12l-.09.26a.76.76,0,0,0-.4-.11c-.2,0-.32.12-.32.26s.12.23.37.33.51.3.51.58-.27.58-.73.58a1.08,1.08,0,0,1-.54-.13Z" transform="translate(-69.43 -324.98)"/><path class="cls-11" d="M263.7,376.94a1,1,0,0,1-1,1,.92.92,0,0,1-.93-1,.94.94,0,0,1,1-1A.92.92,0,0,1,263.7,376.94Zm-1.54,0a.66.66,0,0,0,.59.74c.34,0,.59-.31.59-.75s-.16-.74-.58-.74S262.16,376.59,262.16,377Z" transform="translate(-69.43 -324.98)"/><path class="cls-11" d="M264.14,376.59c0-.23,0-.42,0-.6h.31v.38h0a.59.59,0,0,1,.54-.43l.1,0v.33H265a.49.49,0,0,0-.47.45.78.78,0,0,0,0,.16v1h-.35Z" transform="translate(-69.43 -324.98)"/><path class="cls-11" d="M268.05,376.94a.94.94,0,0,1-1,1,.92.92,0,0,1-.93-1,.94.94,0,0,1,1-1A.92.92,0,0,1,268.05,376.94Zm-1.53,0c0,.42.24.74.58.74s.59-.31.59-.75-.16-.74-.58-.74S266.52,376.59,266.52,377Z" transform="translate(-69.43 -324.98)"/><path class="cls-11" d="M270.12,377.4c0,.2,0,.37,0,.52h-.31l0-.31h0a.73.73,0,0,1-.64.36c-.3,0-.67-.17-.67-.85V376h.36v1.07c0,.37.11.62.43.62a.51.51,0,0,0,.46-.32.57.57,0,0,0,0-.18V376h.36Z" transform="translate(-69.43 -324.98)"/><path class="cls-11" d="M271.12,375.43V376h.51v.27h-.51v1c0,.24.07.38.27.38a.77.77,0,0,0,.2,0l0,.27a1.17,1.17,0,0,1-.31,0,.49.49,0,0,1-.38-.14.74.74,0,0,1-.14-.51v-1.05h-.3V376h.3v-.47Z" transform="translate(-69.43 -324.98)"/><path class="cls-11" d="M272,376.62c0-.25,0-.45,0-.63h.31l0,.33h0a.75.75,0,0,1,.69-.38.89.89,0,0,1,.82,1,.92.92,0,0,1-.88,1,.67.67,0,0,1-.6-.31h0v1H272Zm.35.52a.59.59,0,0,0,0,.14.54.54,0,0,0,.53.41c.37,0,.58-.3.58-.75s-.2-.72-.57-.72a.56.56,0,0,0-.53.44.35.35,0,0,0,0,.14Z" transform="translate(-69.43 -324.98)"/><path class="cls-11" d="M275.92,377.4a4.1,4.1,0,0,0,0,.52h-.32l0-.31h0a.76.76,0,0,1-.64.36c-.31,0-.67-.17-.67-.85V376h.35v1.07c0,.37.11.62.43.62a.53.53,0,0,0,.47-.32.57.57,0,0,0,0-.18V376h.35Z" transform="translate(-69.43 -324.98)"/><path class="cls-11" d="M276.93,375.43V376h.5v.27h-.5v1c0,.24.07.38.26.38a1,1,0,0,0,.21,0v.27a1.11,1.11,0,0,1-.31,0,.51.51,0,0,1-.38-.14.74.74,0,0,1-.14-.51v-1.05h-.3V376h.3v-.47Z" transform="translate(-69.43 -324.98)"/><path class="cls-12" d="M311.14,334.62a1.26,1.26,0,0,1-1.25,1.42,1.23,1.23,0,0,1-1.21-1.36,1.28,1.28,0,0,1,1.25-1.42A1.22,1.22,0,0,1,311.14,334.62Zm-2.09.05c0,.57.31,1.09.86,1.09s.86-.51.86-1.12-.28-1.1-.86-1.1S309.05,334.08,309.05,334.67Z" transform="translate(-69.43 -324.98)"/><path class="cls-12" d="M313.21,335.47c0,.2,0,.38,0,.53h-.31l0-.32h0a.72.72,0,0,1-.64.36c-.3,0-.67-.17-.67-.85v-1.13h.35v1.08c0,.36.12.61.44.61a.5.5,0,0,0,.46-.32.52.52,0,0,0,0-.18v-1.19h.35Z" transform="translate(-69.43 -324.98)"/><path class="cls-12" d="M314.22,333.51v.55h.5v.27h-.5v1c0,.24.07.38.27.38l.2,0,0,.26a.85.85,0,0,1-.32.05.49.49,0,0,1-.38-.15.71.71,0,0,1-.13-.5v-1.06h-.3v-.27h.3v-.46Z" transform="translate(-69.43 -324.98)"/><path class="cls-12" d="M315.12,334.7c0-.25,0-.45,0-.64h.31l0,.34h0a.75.75,0,0,1,.68-.38.88.88,0,0,1,.82,1c0,.7-.42,1-.88,1a.67.67,0,0,1-.59-.3h0v1.05h-.35Zm.35.51a.59.59,0,0,0,0,.14.53.53,0,0,0,.52.42c.37,0,.59-.31.59-.75s-.2-.72-.57-.72a.57.57,0,0,0-.54.44.59.59,0,0,0,0,.14Z" transform="translate(-69.43 -324.98)"/><path class="cls-12" d="M319,335.47c0,.2,0,.38,0,.53h-.31l0-.32h0a.71.71,0,0,1-.64.36c-.3,0-.66-.17-.66-.85v-1.13h.35v1.08c0,.36.11.61.43.61a.49.49,0,0,0,.46-.32.53.53,0,0,0,0-.18v-1.19H319Z" transform="translate(-69.43 -324.98)"/><path class="cls-12" d="M320,333.51v.55h.5v.27H320v1c0,.24.06.38.26.38l.2,0,0,.26a.83.83,0,0,1-.31.05.46.46,0,0,1-.38-.15.71.71,0,0,1-.14-.5v-1.06h-.3v-.27h.3v-.46Z" transform="translate(-69.43 -324.98)"/><path class="cls-12" d="M321.79,333.34a5.15,5.15,0,0,1,.74-.06,1.55,1.55,0,0,1,1.09.34,1.24,1.24,0,0,1,.38,1,1.4,1.4,0,0,1-.39,1,1.62,1.62,0,0,1-1.19.39,5.53,5.53,0,0,1-.63,0Zm.34,2.38a1.89,1.89,0,0,0,.36,0,1,1,0,0,0,1.14-1.14,1,1,0,0,0-1.09-1,2,2,0,0,0-.41,0Z" transform="translate(-69.43 -324.98)"/><path class="cls-12" d="M325.51,336l0-.25h0a.71.71,0,0,1-.59.29.55.55,0,0,1-.59-.55c0-.47.41-.73,1.16-.72v0a.4.4,0,0,0-.44-.45,1.08,1.08,0,0,0-.51.14l-.07-.23a1.2,1.2,0,0,1,.63-.17c.59,0,.74.4.74.79v.72a2.27,2.27,0,0,0,0,.47Zm-.05-1c-.39,0-.82.06-.82.44a.31.31,0,0,0,.33.33.49.49,0,0,0,.47-.32.52.52,0,0,0,0-.11Z" transform="translate(-69.43 -324.98)"/><path class="cls-12" d="M326.77,333.51v.55h.51v.27h-.51v1c0,.24.07.38.27.38l.2,0,0,.26a.83.83,0,0,1-.31.05.46.46,0,0,1-.38-.15.71.71,0,0,1-.14-.5v-1.06h-.3v-.27h.3v-.46Z" transform="translate(-69.43 -324.98)"/><path class="cls-12" d="M328.75,336l0-.25h0a.71.71,0,0,1-.6.29.55.55,0,0,1-.59-.55c0-.47.42-.73,1.17-.72v0a.4.4,0,0,0-.44-.45,1.08,1.08,0,0,0-.51.14l-.08-.23a1.24,1.24,0,0,1,.64-.17c.59,0,.73.4.73.79v.72a3.28,3.28,0,0,0,0,.47Zm-.06-1c-.38,0-.82.06-.82.44a.32.32,0,0,0,.34.33.47.47,0,0,0,.46-.32.23.23,0,0,0,0-.11Z" transform="translate(-69.43 -324.98)"/><path class="cls-12" d="M313.06,338.53h0l-.45.24-.07-.27.57-.3h.3v2.6h-.34Z" transform="translate(-69.43 -324.98)"/><path class="cls-12" d="M315.28,339.59v.26h-1v-.26Z" transform="translate(-69.43 -324.98)"/><path class="cls-12" d="M316.55,338.14a3.45,3.45,0,0,1,.63-.06,1.09,1.09,0,0,1,.74.2.56.56,0,0,1,.23.48.64.64,0,0,1-.46.59h0a.7.7,0,0,1,.56.68.71.71,0,0,1-.23.54,1.36,1.36,0,0,1-.93.25,3.48,3.48,0,0,1-.54,0Zm.35,1.1h.31c.37,0,.58-.19.58-.45s-.23-.44-.59-.44a.92.92,0,0,0-.3,0Zm0,1.29a1.11,1.11,0,0,0,.29,0c.36,0,.69-.13.69-.52s-.32-.52-.7-.52h-.28Z" transform="translate(-69.43 -324.98)"/><path class="cls-12" d="M319.1,338.32a.22.22,0,0,1-.23.22.22.22,0,1,1,.23-.22Zm-.4,2.48v-1.94h.36v1.94Z" transform="translate(-69.43 -324.98)"/><path class="cls-12" d="M320.06,338.31v.55h.51v.27h-.51v1c0,.24.07.38.27.38l.2,0,0,.26a.83.83,0,0,1-.31,0,.46.46,0,0,1-.38-.15.71.71,0,0,1-.14-.5v-1.06h-.3v-.27h.3v-.46Z" transform="translate(-69.43 -324.98)"/><path class="cls-12" d="M321.32,339a5.47,5.47,0,0,1,.38-1l.22,0a5.27,5.27,0,0,0-.23.93Zm.6,0a4.83,4.83,0,0,1,.37-1l.22,0a6.32,6.32,0,0,0-.23.93Z" transform="translate(-69.43 -324.98)"/><path class="cls-12" d="M324.51,339.47c0,.88-.33,1.37-.9,1.37s-.85-.47-.86-1.33.37-1.35.9-1.35S324.51,338.64,324.51,339.47Zm-1.41,0c0,.68.21,1.06.53,1.06s.53-.42.53-1.08-.16-1.06-.53-1.06S323.1,338.8,323.1,339.51Z" transform="translate(-69.43 -324.98)"/><path class="cls-12" d="M325.39,338.06a5.39,5.39,0,0,1-.37.95l-.23,0a6.45,6.45,0,0,0,.24-.94Zm.59,0a4.71,4.71,0,0,1-.37.95l-.23,0a5.39,5.39,0,0,0,.24-.94Z" transform="translate(-69.43 -324.98)"/><path class="cls-13" d="M405.85,369.81a1.26,1.26,0,0,1-1.25,1.42,1.24,1.24,0,0,1-1.21-1.37,1.28,1.28,0,0,1,1.25-1.41A1.22,1.22,0,0,1,405.85,369.81Zm-2.09.05c0,.57.31,1.09.86,1.09s.86-.51.86-1.12-.28-1.1-.86-1.1S403.76,369.26,403.76,369.86Z" transform="translate(-69.43 -324.98)"/><path class="cls-13" d="M407.92,370.66c0,.2,0,.38,0,.53h-.31l0-.32h0a.72.72,0,0,1-.64.36c-.3,0-.67-.17-.67-.85v-1.13h.35v1.07c0,.37.12.62.44.62a.5.5,0,0,0,.46-.32.52.52,0,0,0,0-.18v-1.19h.35Z" transform="translate(-69.43 -324.98)"/><path class="cls-13" d="M408.51,369.88c0-.24,0-.44,0-.63h.32v.33h0a.77.77,0,0,1,.69-.37.87.87,0,0,1,.82,1c0,.7-.42,1-.88,1a.69.69,0,0,1-.6-.3h0V372h-.35Zm.35.52a.61.61,0,0,0,0,.14.54.54,0,0,0,.53.41c.37,0,.59-.3.59-.74s-.21-.72-.58-.72a.56.56,0,0,0-.53.43.77.77,0,0,0,0,.15Z" transform="translate(-69.43 -324.98)"/><path class="cls-13" d="M412.4,370.66c0,.2,0,.38,0,.53h-.31l0-.32h0a.72.72,0,0,1-.64.36c-.3,0-.67-.17-.67-.85v-1.13h.35v1.07c0,.37.12.62.44.62a.5.5,0,0,0,.46-.32.52.52,0,0,0,0-.18v-1.19h.35Z" transform="translate(-69.43 -324.98)"/><path class="cls-13" d="M413.41,368.7v.55h.51v.27h-.51v1c0,.24.07.38.27.38a.49.49,0,0,0,.2,0l0,.27a.85.85,0,0,1-.32.05.49.49,0,0,1-.37-.15.73.73,0,0,1-.14-.5v-1.06h-.3v-.27h.3v-.46Z" transform="translate(-69.43 -324.98)"/><path class="cls-13" d="M416.83,368.35v2.34c0,.17,0,.37,0,.5h-.32v-.34h0a.72.72,0,0,1-.66.38.88.88,0,0,1-.83-1,.93.93,0,0,1,.87-1,.66.66,0,0,1,.58.29h0v-1.15Zm-.35,1.69a.41.41,0,0,0,0-.15.52.52,0,0,0-.5-.41c-.37,0-.58.32-.58.75s.19.72.57.72a.53.53,0,0,0,.51-.42.39.39,0,0,0,0-.15Z" transform="translate(-69.43 -324.98)"/><path class="cls-13" d="M418.49,371.19l0-.25h0a.71.71,0,0,1-.59.29.56.56,0,0,1-.6-.55c0-.47.42-.73,1.17-.72v0a.4.4,0,0,0-.44-.45,1,1,0,0,0-.51.14l-.07-.23a1.2,1.2,0,0,1,.63-.17c.59,0,.74.4.74.79v.72a2.27,2.27,0,0,0,0,.47Zm-.05-1c-.39,0-.82.06-.82.44a.31.31,0,0,0,.33.33.49.49,0,0,0,.47-.32.52.52,0,0,0,0-.11Z" transform="translate(-69.43 -324.98)"/><path class="cls-13" d="M419.75,368.7v.55h.51v.27h-.51v1c0,.24.07.38.27.38a.49.49,0,0,0,.2,0l0,.27a.85.85,0,0,1-.32.05.53.53,0,0,1-.38-.15.79.79,0,0,1-.13-.5v-1.06h-.3v-.27h.3v-.46Z" transform="translate(-69.43 -324.98)"/><path class="cls-13" d="M421.72,371.19l0-.25h0a.68.68,0,0,1-.59.29.55.55,0,0,1-.59-.55c0-.47.42-.73,1.17-.72v0a.41.41,0,0,0-.45-.45.94.94,0,0,0-.5.14l-.08-.23a1.24,1.24,0,0,1,.64-.17c.59,0,.73.4.73.79v.72a3.28,3.28,0,0,0,0,.47Zm-.05-1c-.38,0-.82.06-.82.44a.31.31,0,0,0,.33.33.47.47,0,0,0,.47-.32.23.23,0,0,0,0-.11Z" transform="translate(-69.43 -324.98)"/><path class="cls-14" d="M458,333.34a5.15,5.15,0,0,1,.74-.06,1.53,1.53,0,0,1,1.09.34,1.24,1.24,0,0,1,.38,1,1.4,1.4,0,0,1-.39,1,1.61,1.61,0,0,1-1.19.39,5.66,5.66,0,0,1-.63,0Zm.35,2.38a1.78,1.78,0,0,0,.35,0,1,1,0,0,0,1.15-1.14,1,1,0,0,0-1.09-1,1.93,1.93,0,0,0-.41,0Z" transform="translate(-69.43 -324.98)"/><path class="cls-14" d="M461.73,336l0-.25h0a.68.68,0,0,1-.59.29.55.55,0,0,1-.59-.55c0-.47.42-.73,1.16-.72v0a.4.4,0,0,0-.44-.45,1,1,0,0,0-.5.14l-.08-.23a1.24,1.24,0,0,1,.64-.17c.59,0,.73.4.73.79v.72a3.28,3.28,0,0,0,0,.47Zm-.05-1c-.38,0-.82.06-.82.44a.31.31,0,0,0,.33.33.47.47,0,0,0,.47-.32.52.52,0,0,0,0-.11Z" transform="translate(-69.43 -324.98)"/><path class="cls-14" d="M463,333.51v.55h.5v.27H463v1c0,.24.07.38.26.38l.21,0V336a.8.8,0,0,1-.31.05.48.48,0,0,1-.38-.15.71.71,0,0,1-.14-.5v-1.06h-.3v-.27h.3v-.46Z" transform="translate(-69.43 -324.98)"/><path class="cls-14" d="M465,336l0-.25h0a.71.71,0,0,1-.59.29.55.55,0,0,1-.59-.55c0-.47.41-.73,1.16-.72v0a.4.4,0,0,0-.44-.45,1.08,1.08,0,0,0-.51.14l-.07-.23a1.2,1.2,0,0,1,.63-.17c.59,0,.74.4.74.79v.72a2.27,2.27,0,0,0,0,.47Zm-.05-1c-.39,0-.82.06-.82.44a.31.31,0,0,0,.33.33.49.49,0,0,0,.47-.32.52.52,0,0,0,0-.11Z" transform="translate(-69.43 -324.98)"/><path class="cls-14" d="M467.1,333.51v.55h.5v.27h-.5v1c0,.24.07.38.26.38l.21,0V336a.8.8,0,0,1-.31.05.48.48,0,0,1-.38-.15.71.71,0,0,1-.14-.5v-1.06h-.3v-.27h.3v-.46Z" transform="translate(-69.43 -324.98)"/><path class="cls-14" d="M468,334.67c0-.23,0-.43,0-.61h.31v.38h0a.58.58,0,0,1,.53-.42h.1v.33h-.12a.5.5,0,0,0-.47.45.91.91,0,0,0,0,.17v1H468Z" transform="translate(-69.43 -324.98)"/><path class="cls-14" d="M470.36,336l0-.25h0a.71.71,0,0,1-.59.29.55.55,0,0,1-.6-.55c0-.47.42-.73,1.17-.72v0a.4.4,0,0,0-.44-.45,1.08,1.08,0,0,0-.51.14l-.08-.23a1.27,1.27,0,0,1,.64-.17c.59,0,.74.4.74.79v.72a2.27,2.27,0,0,0,0,.47Zm-.05-1c-.39,0-.82.06-.82.44a.31.31,0,0,0,.33.33.49.49,0,0,0,.47-.32.52.52,0,0,0,0-.11Z" transform="translate(-69.43 -324.98)"/><path class="cls-14" d="M471.21,334.59c0-.2,0-.37,0-.53h.31l0,.32h0a.71.71,0,0,1,.64-.36c.27,0,.68.16.68.82V336h-.35v-1.12c0-.31-.12-.57-.45-.57a.51.51,0,0,0-.47.36.44.44,0,0,0,0,.16V336h-.36Z" transform="translate(-69.43 -324.98)"/><path class="cls-14" d="M473.39,335.64a.86.86,0,0,0,.46.14c.26,0,.37-.13.37-.29s-.1-.26-.35-.35-.52-.32-.52-.55A.6.6,0,0,1,474,334a1,1,0,0,1,.48.12l-.09.26a.76.76,0,0,0-.4-.12.28.28,0,0,0-.32.27c0,.16.12.23.37.32s.5.3.5.59-.26.58-.72.58a1.08,1.08,0,0,1-.54-.13Z" transform="translate(-69.43 -324.98)"/><path class="cls-14" d="M475,334.59c0-.2,0-.37,0-.53h.31l0,.32h0A.65.65,0,0,1,476,334a.56.56,0,0,1,.54.39h0a.78.78,0,0,1,.22-.25.63.63,0,0,1,.42-.14c.26,0,.64.17.64.84V336h-.34v-1.1c0-.37-.14-.59-.42-.59a.49.49,0,0,0-.45.49V336h-.34v-1.16c0-.31-.14-.53-.4-.53a.48.48,0,0,0-.44.35.47.47,0,0,0,0,.17V336H475Z" transform="translate(-69.43 -324.98)"/><path class="cls-14" d="M478.75,333.52a.22.22,0,0,1-.23.22.22.22,0,1,1,.23-.22Zm-.4,2.48v-1.94h.36V336Z" transform="translate(-69.43 -324.98)"/><path class="cls-14" d="M479.24,335.64a.93.93,0,0,0,.47.14c.25,0,.37-.13.37-.29s-.1-.26-.36-.35-.51-.32-.51-.55a.6.6,0,0,1,.67-.57,1,1,0,0,1,.47.12l-.08.26a.76.76,0,0,0-.4-.12c-.21,0-.32.12-.32.27s.11.23.36.32.51.3.51.59-.26.58-.72.58a1.15,1.15,0,0,1-.55-.13Z" transform="translate(-69.43 -324.98)"/><path class="cls-14" d="M480.83,335.64a.86.86,0,0,0,.46.14c.26,0,.38-.13.38-.29s-.1-.26-.36-.35-.52-.32-.52-.55a.6.6,0,0,1,.67-.57,1,1,0,0,1,.48.12l-.09.26a.76.76,0,0,0-.4-.12.28.28,0,0,0-.32.27c0,.16.12.23.37.32s.5.3.5.59-.26.58-.72.58a1.08,1.08,0,0,1-.54-.13Z" transform="translate(-69.43 -324.98)"/><path class="cls-14" d="M482.85,333.52a.21.21,0,0,1-.22.22.22.22,0,0,1-.22-.22.22.22,0,0,1,.22-.22A.21.21,0,0,1,482.85,333.52Zm-.39,2.48v-1.94h.35V336Z" transform="translate(-69.43 -324.98)"/><path class="cls-14" d="M485.14,335a.94.94,0,0,1-1,1,.92.92,0,0,1-.93-1,1,1,0,0,1,1-1A.91.91,0,0,1,485.14,335Zm-1.53,0c0,.42.24.74.59.74s.58-.32.58-.75-.16-.75-.57-.75S483.61,334.67,483.61,335Z" transform="translate(-69.43 -324.98)"/><path class="cls-14" d="M485.59,334.59a4.35,4.35,0,0,0,0-.53h.32l0,.32h0a.72.72,0,0,1,.64-.36c.27,0,.69.16.69.82V336h-.36v-1.12c0-.31-.11-.57-.44-.57a.51.51,0,0,0-.47.36.45.45,0,0,0,0,.16V336h-.35Z" transform="translate(-69.43 -324.98)"/><path class="cls-14" d="M490,335.93a1.5,1.5,0,0,1-.56.11.92.92,0,0,1-1-1,1,1,0,0,1,1-1,1.28,1.28,0,0,1,.48.1l-.08.28a.75.75,0,0,0-.4-.1.67.67,0,0,0-.69.74.67.67,0,0,0,.67.72,1,1,0,0,0,.44-.1Z" transform="translate(-69.43 -324.98)"/><path class="cls-14" d="M492.18,335a1,1,0,0,1-1,1,.91.91,0,0,1-.92-1,.94.94,0,0,1,1-1A.92.92,0,0,1,492.18,335Zm-1.54,0a.66.66,0,0,0,.59.74c.34,0,.59-.32.59-.75s-.17-.75-.58-.75S490.64,334.67,490.64,335Z" transform="translate(-69.43 -324.98)"/><path class="cls-14" d="M492.62,334.59c0-.2,0-.37,0-.53h.3l0,.32h0a.67.67,0,0,1,.61-.36.58.58,0,0,1,.55.39h0a.75.75,0,0,1,.21-.25.65.65,0,0,1,.43-.14c.25,0,.63.17.63.84V336H495v-1.1c0-.37-.14-.59-.42-.59a.44.44,0,0,0-.41.32.47.47,0,0,0,0,.17V336h-.35v-1.16c0-.31-.13-.53-.4-.53a.48.48,0,0,0-.44.35.47.47,0,0,0,0,.17V336h-.35Z" transform="translate(-69.43 -324.98)"/><path class="cls-14" d="M496,334.7c0-.25,0-.45,0-.64h.32v.34h0A.76.76,0,0,1,497,334a.88.88,0,0,1,.82,1c0,.7-.42,1-.88,1a.69.69,0,0,1-.6-.3h0v1.05H496Zm.35.51a.61.61,0,0,0,0,.14.55.55,0,0,0,.53.42c.37,0,.59-.31.59-.75s-.21-.72-.58-.72a.56.56,0,0,0-.53.44.59.59,0,0,0,0,.14Z" transform="translate(-69.43 -324.98)"/><path class="cls-14" d="M498.23,333.16h.35V336h-.35Z" transform="translate(-69.43 -324.98)"/><path class="cls-14" d="M499.37,335.1a.63.63,0,0,0,.67.67,1.34,1.34,0,0,0,.53-.1l.06.25a1.63,1.63,0,0,1-.64.12.9.9,0,0,1-.95-1,.94.94,0,0,1,.91-1,.82.82,0,0,1,.8.91.72.72,0,0,1,0,.17Zm1-.26a.51.51,0,0,0-.49-.57.58.58,0,0,0-.54.57Z" transform="translate(-69.43 -324.98)"/><path class="cls-14" d="M501.61,333.51v.55h.5v.27h-.5v1c0,.24.06.38.26.38l.2,0,0,.26a.83.83,0,0,1-.31.05.46.46,0,0,1-.38-.15.71.71,0,0,1-.14-.5v-1.06H501v-.27h.3v-.46Z" transform="translate(-69.43 -324.98)"/><path class="cls-14" d="M502.68,335.1a.62.62,0,0,0,.66.67,1.44,1.44,0,0,0,.54-.1l.06.25a1.73,1.73,0,0,1-.65.12.9.9,0,0,1-1-1,.94.94,0,0,1,.91-1,.82.82,0,0,1,.8.91c0,.07,0,.13,0,.17Zm1-.26a.5.5,0,0,0-.49-.57.59.59,0,0,0-.54.57Z" transform="translate(-69.43 -324.98)"/><path class="cls-14" d="M506.16,333.16v2.34c0,.17,0,.37,0,.5h-.31l0-.34h0a.71.71,0,0,1-.66.38.88.88,0,0,1-.82-1,.92.92,0,0,1,.86-1,.65.65,0,0,1,.59.3h0v-1.16Zm-.36,1.69a.81.81,0,0,0,0-.15.52.52,0,0,0-.51-.4c-.36,0-.58.32-.58.74s.19.72.57.72a.54.54,0,0,0,.52-.42.76.76,0,0,0,0-.15Z" transform="translate(-69.43 -324.98)"/><path class="cls-14" d="M506.62,335.79a.23.23,0,0,1,.24-.25.23.23,0,0,1,.23.25.24.24,0,1,1-.47,0Z" transform="translate(-69.43 -324.98)"/><path class="cls-14" d="M460.8,338.14a5.15,5.15,0,0,1,.74-.06,1.55,1.55,0,0,1,1.09.34,1.24,1.24,0,0,1,.38,1,1.4,1.4,0,0,1-.39,1,1.62,1.62,0,0,1-1.19.39,5.53,5.53,0,0,1-.63,0Zm.34,2.38a1.89,1.89,0,0,0,.36,0,1,1,0,0,0,1.14-1.14,1,1,0,0,0-1.09-1,2,2,0,0,0-.41,0Z" transform="translate(-69.43 -324.98)"/><path class="cls-14" d="M463.81,338.1v1.13h1.3V338.1h.35v2.7h-.35v-1.26h-1.3v1.26h-.35v-2.7Z" transform="translate(-69.43 -324.98)"/><path class="cls-14" d="M466.58,338.4h-.82v-.3h2v.3h-.83v2.4h-.35Z" transform="translate(-69.43 -324.98)"/><path class="cls-14" d="M468.7,338.53h0l-.45.24-.07-.27.57-.3h.3v2.6h-.34Z" transform="translate(-69.43 -324.98)"/><path class="cls-14" d="M470.75,338.53h0l-.45.24-.07-.27.57-.3h.3v2.6h-.34Z" transform="translate(-69.43 -324.98)"/><path class="cls-14" d="M473,339.49c0-.24,0-.44,0-.63h.32v.34h0a.75.75,0,0,1,.69-.38.88.88,0,0,1,.82,1,.92.92,0,0,1-.88,1,.69.69,0,0,1-.6-.3h0v1H473Zm.34.52a.59.59,0,0,0,0,.14.54.54,0,0,0,.53.42c.37,0,.59-.31.59-.75s-.21-.72-.58-.72a.56.56,0,0,0-.53.44.58.58,0,0,0,0,.14Z" transform="translate(-69.43 -324.98)"/><path class="cls-14" d="M476.89,340.27c0,.2,0,.38,0,.53h-.31l0-.32h0a.72.72,0,0,1-.64.36c-.31,0-.67-.17-.67-.85v-1.13h.35v1.07c0,.37.11.62.43.62a.51.51,0,0,0,.47-.32.52.52,0,0,0,0-.18v-1.19h.35Z" transform="translate(-69.43 -324.98)"/><path class="cls-14" d="M477.48,338h.35v2.84h-.35Z" transform="translate(-69.43 -324.98)"/><path class="cls-14" d="M478.42,338h.35v2.84h-.35Z" transform="translate(-69.43 -324.98)"/><path class="cls-14" d="M479.32,340.44a.86.86,0,0,0,.46.14c.26,0,.38-.13.38-.29s-.1-.26-.36-.36-.52-.31-.52-.54a.6.6,0,0,1,.67-.57,1,1,0,0,1,.48.12l-.09.26a.76.76,0,0,0-.4-.12.28.28,0,0,0-.32.27c0,.16.12.23.37.32s.51.3.51.59-.27.58-.73.58a1.08,1.08,0,0,1-.54-.13Z" transform="translate(-69.43 -324.98)"/><path class="cls-14" d="M483.47,338v2.34c0,.17,0,.37,0,.5h-.31l0-.34h0a.7.7,0,0,1-.66.38.88.88,0,0,1-.82-1,.92.92,0,0,1,.86-1,.65.65,0,0,1,.59.3h0V338Zm-.35,1.69a.89.89,0,0,0,0-.15.51.51,0,0,0-.51-.4c-.36,0-.58.31-.58.74s.19.72.57.72a.53.53,0,0,0,.52-.42.77.77,0,0,0,0-.15Z" transform="translate(-69.43 -324.98)"/><path class="cls-14" d="M485.8,339.81a.94.94,0,0,1-1,1,.92.92,0,0,1-.93-1,1,1,0,0,1,1-1A.91.91,0,0,1,485.8,339.81Zm-1.53,0c0,.43.24.75.59.75s.58-.32.58-.75-.16-.75-.58-.75S484.27,339.47,484.27,339.83Z" transform="translate(-69.43 -324.98)"/><path class="cls-14" d="M486.36,338.86l.26,1c.05.21.1.41.14.61h0c.05-.19.11-.4.17-.61l.32-1h.29l.3,1c.08.23.13.44.18.63h0a4.71,4.71,0,0,1,.15-.63l.27-1h.35l-.62,1.94h-.32l-.3-.93a5.79,5.79,0,0,1-.17-.63h0a6,6,0,0,1-.18.64l-.31.92h-.32l-.58-1.94Z" transform="translate(-69.43 -324.98)"/><path class="cls-14" d="M489.16,339.39c0-.2,0-.37,0-.53h.31l0,.32h0a.71.71,0,0,1,.64-.36c.27,0,.68.16.68.82v1.16h-.35v-1.12c0-.31-.12-.57-.45-.57a.51.51,0,0,0-.47.36.44.44,0,0,0,0,.16v1.17h-.36Z" transform="translate(-69.43 -324.98)"/><path class="cls-14" d="M492.27,340.8v-1.67H492v-.27h.27v-.09a.91.91,0,0,1,.22-.67.66.66,0,0,1,.47-.18.78.78,0,0,1,.3.05l-.05.27a.57.57,0,0,0-.22,0c-.3,0-.37.26-.37.56v.1h.46v.27h-.46v1.67Z" transform="translate(-69.43 -324.98)"/><path class="cls-14" d="M495.1,339.81a1,1,0,0,1-1,1,.91.91,0,0,1-.92-1,.94.94,0,0,1,1-1A.91.91,0,0,1,495.1,339.81Zm-1.54,0c0,.43.25.75.59.75s.59-.32.59-.75-.16-.75-.58-.75S493.56,339.47,493.56,339.83Z" transform="translate(-69.43 -324.98)"/><path class="cls-14" d="M495.54,339.47c0-.23,0-.43,0-.61h.31v.38h0a.58.58,0,0,1,.54-.42h.1v.33h-.12a.49.49,0,0,0-.47.45.88.88,0,0,0,0,.17v1h-.35Z" transform="translate(-69.43 -324.98)"/><path class="cls-14" d="M499.14,338.5h-1l-.1.66h.21a1.06,1.06,0,0,1,.56.14.74.74,0,0,1,.37.66.9.9,0,0,1-1,.89,1.24,1.24,0,0,1-.64-.16l.08-.27a1.1,1.1,0,0,0,.56.15.57.57,0,0,0,.61-.57c0-.33-.22-.57-.74-.57a1.73,1.73,0,0,0-.36,0l.17-1.25h1.24Z" transform="translate(-69.43 -324.98)"/><path class="cls-14" d="M501.37,339.47c0,.88-.33,1.37-.91,1.37s-.85-.47-.86-1.33.38-1.35.91-1.35S501.37,338.64,501.37,339.47Zm-1.41,0c0,.68.2,1.06.52,1.06s.53-.42.53-1.08-.16-1.06-.52-1.06S500,338.8,500,339.51Z" transform="translate(-69.43 -324.98)"/><path class="cls-14" d="M503.42,340.27c0,.2,0,.38,0,.53h-.31l0-.32h0a.72.72,0,0,1-.64.36c-.3,0-.67-.17-.67-.85v-1.13h.35v1.07c0,.37.11.62.44.62a.51.51,0,0,0,.46-.32.52.52,0,0,0,0-.18v-1.19h.35Z" transform="translate(-69.43 -324.98)"/><path class="cls-14" d="M504,340.44a.89.89,0,0,0,.46.14c.26,0,.38-.13.38-.29s-.1-.26-.36-.36-.51-.31-.51-.54a.6.6,0,0,1,.67-.57,1,1,0,0,1,.47.12l-.09.26a.69.69,0,0,0-.39-.12c-.21,0-.33.12-.33.27s.12.23.37.32.51.3.51.59-.26.58-.72.58a1.12,1.12,0,0,1-.55-.13Z" transform="translate(-69.43 -324.98)"/><path class="cls-15" d="M72.35,347.28l-1.76-5.39h.75l.84,2.66c.23.73.43,1.38.57,2h0c.15-.62.38-1.3.62-2l.91-2.67H75l-1.93,5.39Z" transform="translate(-69.43 -324.98)"/><path class="cls-15" d="M79.39,347.11a3.42,3.42,0,0,1-1.42.25,2.51,2.51,0,0,1-2.66-2.72,2.68,2.68,0,0,1,2.81-2.83,2.83,2.83,0,0,1,1.28.24l-.17.56a2.64,2.64,0,0,0-1.08-.22A2,2,0,0,0,76,344.61a2,2,0,0,0,2.07,2.17,2.89,2.89,0,0,0,1.14-.22Z" transform="translate(-69.43 -324.98)"/><path class="cls-15" d="M83.86,347.11a3.38,3.38,0,0,1-1.42.25,2.51,2.51,0,0,1-2.66-2.72,2.68,2.68,0,0,1,2.81-2.83,2.79,2.79,0,0,1,1.28.24l-.16.56a2.69,2.69,0,0,0-1.09-.22,2,2,0,0,0-2.11,2.22,2,2,0,0,0,2.08,2.17,2.88,2.88,0,0,0,1.13-.22Z" transform="translate(-69.43 -324.98)"/><path d="M73.85,365.24a4.79,4.79,0,0,1-1.65.3,2.53,2.53,0,0,1-2.77-2.72A2.7,2.7,0,0,1,72.35,360a3.18,3.18,0,0,1,1.34.25l-.17.56a2.86,2.86,0,0,0-1.19-.23,2,2,0,0,0-2.16,2.17A2,2,0,0,0,72.24,365a2.29,2.29,0,0,0,.93-.14v-1.61H72.08v-.56h1.77Z" transform="translate(-69.43 -324.98)"/><path d="M74.92,365.48v-5.39h.76l1.72,2.73a14.42,14.42,0,0,1,1,1.75h0a21.92,21.92,0,0,1-.08-2.21v-2.26H79v5.39h-.7l-1.71-2.73a16.49,16.49,0,0,1-1-1.8h0c0,.68,0,1.33,0,2.22v2.3Z" transform="translate(-69.43 -324.98)"/><path d="M80.18,360.17a9.23,9.23,0,0,1,1.48-.12,3.07,3.07,0,0,1,2.18.68,2.47,2.47,0,0,1,.76,1.93,2.88,2.88,0,0,1-.77,2.1,3.35,3.35,0,0,1-2.38.77,11.38,11.38,0,0,1-1.27-.06Zm.7,4.76a4.55,4.55,0,0,0,.7,0,2.07,2.07,0,0,0,2.3-2.29,1.93,1.93,0,0,0-2.19-2.07,3.89,3.89,0,0,0-.81.07Z" transform="translate(-69.43 -324.98)"/><line class="cls-16" x1="187.14" y1="82.14" x2="221.71" y2="82.14"/><line class="cls-17" x1="186.9" y1="103.25" x2="221.71" y2="103.25"/><path class="cls-18" d="M311.69,407.37c0-.75-.09-1.66-.08-2.33h0c-.18.63-.41,1.3-.68,2L310,409.7h-.53l-.87-2.56c-.26-.76-.47-1.46-.62-2.1h0c0,.67-.05,1.58-.1,2.38l-.15,2.31H307l.38-5.38h.88l.92,2.6c.23.67.41,1.26.55,1.82h0c.14-.55.33-1.14.57-1.82l1-2.6h.89l.33,5.38h-.68Z" transform="translate(-69.43 -324.98)"/><path class="cls-18" d="M317.34,409.56a3.46,3.46,0,0,1-1.42.25,2.51,2.51,0,0,1-2.66-2.72,2.68,2.68,0,0,1,2.81-2.83,2.83,2.83,0,0,1,1.28.24l-.17.57a2.49,2.49,0,0,0-1.09-.23,2,2,0,0,0-2.1,2.22,2,2,0,0,0,2.07,2.17,2.89,2.89,0,0,0,1.14-.22Z" transform="translate(-69.43 -324.98)"/><path class="cls-18" d="M318.91,404.35v3.19c0,1.2.54,1.72,1.26,1.72s1.31-.53,1.31-1.72v-3.19h.7v3.14c0,1.65-.87,2.33-2,2.33s-1.93-.63-1.93-2.3v-3.17Z" transform="translate(-69.43 -324.98)"/><path class="cls-18" d="M325,408.89a2.49,2.49,0,0,0,1.25.35c.71,0,1.13-.38,1.13-.92s-.29-.79-1-1.07c-.88-.31-1.42-.77-1.42-1.53a1.54,1.54,0,0,1,1.74-1.46,2.53,2.53,0,0,1,1.19.26l-.19.57a2.12,2.12,0,0,0-1-.26c-.74,0-1,.44-1,.81s.33.75,1.07,1c.91.35,1.38.79,1.38,1.58s-.62,1.55-1.89,1.55a2.76,2.76,0,0,1-1.37-.34Z" transform="translate(-69.43 -324.98)"/><path class="cls-18" d="M329.79,404.78a.44.44,0,0,1-.87,0,.43.43,0,0,1,.44-.44A.42.42,0,0,1,329.79,404.78Zm-.78,5v-3.87h.7v3.87Z" transform="translate(-69.43 -324.98)"/><path class="cls-18" d="M334.21,405.86c0,.28,0,.6,0,1.07v2.25a2.2,2.2,0,0,1-.55,1.76,2.08,2.08,0,0,1-1.41.47,2.55,2.55,0,0,1-1.28-.32l.17-.54a2.21,2.21,0,0,0,1.14.3c.72,0,1.24-.37,1.24-1.35v-.43h0a1.38,1.38,0,0,1-1.23.65,1.74,1.74,0,0,1-1.65-1.89,1.86,1.86,0,0,1,1.74-2.05,1.29,1.29,0,0,1,1.21.67h0l0-.59Zm-.72,1.53a1.08,1.08,0,0,0,0-.32,1,1,0,0,0-1-.74c-.67,0-1.15.57-1.15,1.46s.39,1.39,1.14,1.39a1,1,0,0,0,1-.72,1.19,1.19,0,0,0,.06-.37Z" transform="translate(-69.43 -324.98)"/><path class="cls-18" d="M335.3,406.91c0-.4,0-.73,0-1.05h.62l0,.64h0a1.43,1.43,0,0,1,1.28-.72c.54,0,1.37.32,1.37,1.64v2.31h-.71V407.5c0-.62-.23-1.14-.89-1.14a1,1,0,0,0-.95.72,1.11,1.11,0,0,0,0,.33v2.32h-.71Z" transform="translate(-69.43 -324.98)"/><path class="cls-18" d="M341.89,409.73l-.06-.48h0a1.47,1.47,0,0,1-1.19.57,1.1,1.1,0,0,1-1.18-1.11c0-.93.83-1.45,2.33-1.44v-.08a.8.8,0,0,0-.88-.89,2,2,0,0,0-1,.28l-.16-.46a2.37,2.37,0,0,1,1.27-.34c1.18,0,1.47.8,1.47,1.58v1.45a5.14,5.14,0,0,0,.07.92Zm-.11-2c-.77,0-1.64.12-1.64.87a.62.62,0,0,0,.67.67,1,1,0,0,0,.93-.64.66.66,0,0,0,0-.23Z" transform="translate(-69.43 -324.98)"/><path class="cls-18" d="M343.6,404.06h.7v5.67h-.7Z" transform="translate(-69.43 -324.98)"/><path class="cls-19" d="M306.66,424.78a10.54,10.54,0,0,1,1.48-.11,3.07,3.07,0,0,1,2.18.67,2.5,2.5,0,0,1,.76,1.94,2.84,2.84,0,0,1-.77,2.09,3.32,3.32,0,0,1-2.39.78,11.06,11.06,0,0,1-1.26-.07Zm.7,4.77a4.55,4.55,0,0,0,.7,0,2.07,2.07,0,0,0,2.29-2.29,1.92,1.92,0,0,0-2.18-2.08,3.89,3.89,0,0,0-.81.07Z" transform="translate(-69.43 -324.98)"/><path class="cls-19" d="M312.68,424.71V427h2.61v-2.26h.7v5.39h-.7v-2.53h-2.61v2.53H312v-5.39Z" transform="translate(-69.43 -324.98)"/><path class="cls-19" d="M318.23,425.3h-1.64v-.59h4v.59h-1.65v4.8h-.7Z" transform="translate(-69.43 -324.98)"/><path class="cls-19" d="M322.46,425.56h0l-.9.49-.14-.54,1.14-.61h.6v5.2h-.68Z" transform="translate(-69.43 -324.98)"/><path class="cls-19" d="M326.56,425.56h0l-.91.49-.13-.54,1.13-.61h.6v5.2h-.68Z" transform="translate(-69.43 -324.98)"/><path class="cls-19" d="M331,429.25a2.46,2.46,0,0,0,1.25.35c.71,0,1.12-.37,1.12-.92s-.29-.79-1-1.07c-.88-.31-1.43-.76-1.43-1.52a1.56,1.56,0,0,1,1.75-1.47,2.39,2.39,0,0,1,1.19.27l-.19.56a2.27,2.27,0,0,0-1-.25c-.73,0-1,.44-1,.81s.33.75,1.07,1c.91.35,1.37.79,1.37,1.58s-.61,1.55-1.88,1.55a2.83,2.83,0,0,1-1.38-.34Z" transform="translate(-69.43 -324.98)"/><path class="cls-19" d="M335.79,425.14a.42.42,0,0,1-.45.43.41.41,0,0,1-.42-.43.43.43,0,0,1,.44-.44A.42.42,0,0,1,335.79,425.14Zm-.79,5v-3.87h.71v3.87Z" transform="translate(-69.43 -324.98)"/><path class="cls-19" d="M340.21,426.23c0,.28,0,.59,0,1.06v2.25a2.26,2.26,0,0,1-.55,1.77,2.07,2.07,0,0,1-1.41.46,2.47,2.47,0,0,1-1.29-.32l.18-.54a2.14,2.14,0,0,0,1.13.31c.72,0,1.25-.38,1.25-1.35v-.43h0a1.37,1.37,0,0,1-1.23.64,1.72,1.72,0,0,1-1.64-1.88,1.86,1.86,0,0,1,1.74-2.06,1.29,1.29,0,0,1,1.21.67h0l0-.58Zm-.73,1.53a1,1,0,0,0,0-.32,1,1,0,0,0-1-.75c-.67,0-1.15.57-1.15,1.47s.38,1.39,1.14,1.39a1,1,0,0,0,1-.72,1.24,1.24,0,0,0,.05-.38Z" transform="translate(-69.43 -324.98)"/><path class="cls-19" d="M341.3,427.28c0-.4,0-.73,0-1h.62l0,.64h0a1.42,1.42,0,0,1,1.28-.73c.53,0,1.36.32,1.36,1.65v2.31h-.7v-2.23c0-.63-.23-1.15-.9-1.15a1,1,0,0,0-.94.72,1.09,1.09,0,0,0-.05.33v2.33h-.7Z" transform="translate(-69.43 -324.98)"/><path class="cls-19" d="M347.88,430.1l-.05-.49h0a1.42,1.42,0,0,1-1.18.58,1.1,1.1,0,0,1-1.18-1.11c0-.94.83-1.45,2.32-1.44v-.08a.8.8,0,0,0-.88-.9,1.86,1.86,0,0,0-1,.29l-.16-.47a2.46,2.46,0,0,1,1.27-.34c1.18,0,1.47.81,1.47,1.58v1.45a5.25,5.25,0,0,0,.06.93Zm-.1-2c-.77,0-1.64.12-1.64.88a.62.62,0,0,0,.66.67,1,1,0,0,0,.94-.65.85.85,0,0,0,0-.22Z" transform="translate(-69.43 -324.98)"/><path class="cls-19" d="M349.59,424.42h.71v5.68h-.71Z" transform="translate(-69.43 -324.98)"/><rect class="cls-20" x="168.42" y="73.76" width="128.46" height="38.47"/></svg>